<svg id="Grupo_377" data-name="Grupo 377" xmlns="http://www.w3.org/2000/svg" xmlns:xlink="http://www.w3.org/1999/xlink" width="125" height="83.393" viewBox="0 0 125 83.393">
  <defs>
    <clipPath id="clip-path">
      <rect id="Rectángulo_185" data-name="Rectángulo 185" width="125" height="83.393" fill="none"/>
    </clipPath>
  </defs>
  <g id="Grupo_376" data-name="Grupo 376" clip-path="url(#clip-path)">
    <path id="Trazado_576" data-name="Trazado 576" d="M99.494,0A25.435,25.435,0,0,0,79.806,9.29l-.219.266A75.14,75.14,0,0,0,62.542,7.88,74.962,74.962,0,0,0,45.426,9.575l-.206-.25A25.506,25.506,0,0,0,0,25.508C0,37.666,8.687,48.53,20.261,50.963c2.944,21.075,23.757,32.43,42.281,32.43s39.338-11.353,42.281-32.43C116.354,48.5,125,37.631,125,25.508A25.535,25.535,0,0,0,99.494,0M20.028,45.227A20.65,20.65,0,0,1,5.511,25.506a19.993,19.993,0,0,1,35.44-12.694C28.724,16.9,20.43,26.162,20.028,45.227m20.8,9.1a5.6,5.6,0,1,1,5.594-5.612,5.6,5.6,0,0,1-5.594,5.612M62.389,70.553c-5.687.009-9.671-4.013-9.683-10.985-.016-9.56,1.613-23.622,9.626-23.637s9.93,14.044,9.946,23.6c.011,6.972-4.2,11.008-9.889,11.017m21.51-16.3a5.6,5.6,0,1,1,5.593-5.612A5.6,5.6,0,0,1,83.9,54.256m21.139-9.03c-.4-19.092-8.72-28.349-20.977-32.43a19.995,19.995,0,0,1,35.429,12.711,20.662,20.662,0,0,1-14.452,19.719" transform="translate(0 0)" fill="#fff"/>
  </g>
</svg>
