<svg id="Grupo_423" data-name="Grupo 423" xmlns="http://www.w3.org/2000/svg" xmlns:xlink="http://www.w3.org/1999/xlink" width="131.358" height="109.851" viewBox="0 0 131.358 109.851">
  <defs>
    <clipPath id="clip-path">
      <rect id="Rectángulo_201" data-name="Rectángulo 201" width="131.358" height="109.851" fill="none"/>
    </clipPath>
  </defs>
  <g id="Grupo_421" data-name="Grupo 421" clip-path="url(#clip-path)">
    <path id="Trazado_722" data-name="Trazado 722" d="M49.5,82.194C55.653,73.5,89.722,23.28,125.715.417A2.688,2.688,0,0,1,129.7,1.845l1.581,4.743a1.48,1.48,0,0,1-.594,1.7c-15.217,10.044-55.7,56.066-73.547,98.761a4.566,4.566,0,0,1-7.4,1.5C38.381,97.5,10.558,70.329.784,59.684a2.976,2.976,0,0,1,.151-4.179l9.137-8.618a2.977,2.977,0,0,1,4.156.069L47.347,82.371a1.411,1.411,0,0,0,2.153-.178" transform="translate(0 0)" fill="#fff" fill-rule="evenodd"/>
  </g>
</svg>
