<?xml version="1.0" encoding="UTF-8"?><svg xmlns="http://www.w3.org/2000/svg" xmlns:xlink="http://www.w3.org/1999/xlink" viewBox="0 0 622.83 681.75"><defs><style>.j{fill:url(#d);}.k{fill:url(#f);}.l{fill:url(#h);}.m{fill:none;}.n{fill:#067594;}.o{fill:#720f3d;}.p{clip-path:url(#e);}.q{clip-path:url(#i);}.r{clip-path:url(#g);}</style><linearGradient id="d" x1="242.56" y1="288.5" x2="462" y2="288.5" gradientTransform="matrix(1, 0, 0, 1, 0, 0)" gradientUnits="userSpaceOnUse"><stop offset=".03" stop-color="#e94e8d"/><stop offset=".91" stop-color="#d82374"/></linearGradient><clipPath id="e"><path class="m" d="M459.41,281.68c-7.13-15.67-7.46-21.82-7.46-21.82,0,0-1.95,6.6-3.34,15.82-1.39,9.23-18.05,20.69-22.93,9.95-4.87-10.74,16.44-20.83,15.77-33.32-.67-12.49-24.5-29.56-24.5-29.56,1.91,9.16-1.9,22.1-5.64,45.09-3.73,22.99-23.11,31.69-25.95,19.13-2.84-12.56,17.97-38.55,18.71-60.33,.74-21.78-36.02-29.5-43.7-26.91-7.67,2.59-25.19,2.47-25.19,2.47,0,0,2.58,3.39,9.55,11.98,6.97,8.59,7.53,26.81,.63,30.94-6.9,4.14-15.52-14.88-15.47-30.77,.05-15.89-15.13-24.56-40.42-21.65-25.29,2.91-37.72-10.98-37.72-10.98,0,0,6.19,17.52,1.27,30.47-4.92,12.96-9.71,41,5.66,46.15,15.37,5.15,35.1-.03,39.07,4.57,3.97,4.6,5.49,18.22-5.74,14.26-11.23-3.96-19.97-1.5-33.12-1.59-13.14-.09-17.3-9-17.3-9,0,0,2.67,8.19,1.37,19.59-1.3,11.4,5.85,29.59,26.1,37.6,20.25,8.01,25.74,2.74,40.88-6.68,15.14-9.42,33.47-.1,32.46,15.12-1.01,15.23-38.37-2.66-54.33,8.04-15.96,10.71-31.35,5.68-31.35,5.68,4.45,7.52,4.37,15.72,41.06,42.08,36.69,26.35,83.66-40.63,83.66-40.63,0,0,40.94-1.74,54.17-12.49,13.22-10.75,30.92-37.55,23.79-53.22Zm-177.62-42.02c-1.13,2.9-5.17,4.03-9.04,2.53-3.86-1.5-6.08-5.07-4.95-7.97,1.13-2.9,5.17-4.03,9.04-2.53,3.86,1.5,6.08,5.07,4.95,7.97Zm40.65,131.43c-8.47,.03-15.34-3.15-15.35-7.11-.01-3.95,6.84-7.18,15.31-7.2,8.47-.03,15.34,3.15,15.35,7.11,.01,3.95-6.84,7.18-15.31,7.2Zm36.42-96.45c-3.15,.85-6.78-2.43-8.11-7.34-1.33-4.91,.14-9.58,3.28-10.44,3.15-.85,6.78,2.43,8.11,7.34,1.33,4.91-.14,9.58-3.28,10.44Z"/></clipPath><linearGradient id="f" x1="191.88" y1="626.12" x2="322.3" y2="437.93" xlink:href="#d"/><clipPath id="g"><path class="m" d="M292.77,460.47c-17.01-2.62-22.35-5.71-22.35-5.71,0,0,4.45,5.24,11.41,11.46,6.96,6.22,7.42,26.43-4.23,24.63-11.65-1.8-8.43-25.16-19.24-31.44-10.81-6.28-38.15,4.31-38.15,4.31,8.71,3.41,17.45,13.69,34.64,29.41,17.19,15.72,13.86,36.69,1.79,32.19-12.07-4.5-22.41-36.15-40.23-48.69-17.82-12.54-44.41,13.98-46.45,21.82-2.04,7.84-11.73,22.43-11.73,22.43,0,0,4.24-.3,15.25-1.43,11.01-1.12,26.55,8.38,26.23,16.42-.32,8.04-20.95,4.84-34.22-3.91-13.27-8.74-28.84-.8-40.25,21.96-11.41,22.75-29.85,25.55-29.85,25.55,0,0,18.05,4.41,26.19,15.62,8.15,11.21,28.98,30.58,41.71,20.54,12.72-10.04,19.2-29.38,25.22-30.18,6.02-.8,18.26,5.39,8.79,12.61-9.47,7.23-12.19,15.89-19.47,26.84-7.27,10.95-17.01,9.54-17.01,9.54,0,0,8.32,2.26,17.14,9.59,8.83,7.33,27.96,11.31,45.75-1.24,17.8-12.55,16.4-20.04,16.8-37.87,.41-17.83,18.24-28.06,30.43-18.88,12.19,9.18-23.24,30.65-23.03,49.86,.22,19.22-12.42,29.34-12.42,29.34,8.73,.39,15.55,4.95,57.69-11.31,42.14-16.26,11.83-92.25,11.83-92.25,0,0,20.97-35.21,19.22-52.16-1.75-16.95-14.49-46.44-31.5-49.06Zm-132.43,125.6c1.81,2.53,.54,6.54-2.83,8.95-3.37,2.41-7.57,2.31-9.38-.22-1.81-2.53-.54-6.54,2.83-8.95,3.37-2.41,7.57-2.31,9.38,.22Zm132.23,37.97c-4.61,7.1-11.04,11.11-14.35,8.95-3.31-2.15-2.26-9.65,2.36-16.75,4.61-7.1,11.04-11.11,14.35-8.95,3.31,2.15,2.26,9.65-2.36,16.75Zm-60.76-83.3c-1.01,3.1-5.75,4.34-10.59,2.77-4.84-1.57-7.94-5.36-6.94-8.46,1.01-3.1,5.75-4.34,10.59-2.77,4.84,1.57,7.94,5.36,6.94,8.46Z"/></clipPath><linearGradient id="h" x1="309.8" y1="975.16" x2="508.26" y2="1406.69" gradientTransform="translate(455.24 1615.67) rotate(-28.85) scale(1 -1)" gradientUnits="userSpaceOnUse"><stop offset=".04" stop-color="#035c54"/><stop offset=".64" stop-color="#00a278"/></linearGradient><clipPath id="i"><path class="m" d="M419.09,463.68c-2.01-25.04-41.84-70.45-41.84-70.45,0,0,23.57-118.26-41.88-130.54-65.44-12.27-74.11-3.83-86.65-.93,0,0,21.04,11.29,25.87,39.2,4.84,27.91,61.95,49.52,46.75,66.1-15.21,16.58-43.81,6.53-49.18-19.21-5.37-25.73-5.35-36.96-34.51-50.38-29.16-13.42-55.82-2.52-66.65,10.47-10.83,12.99-22.28,18.49-22.28,18.49,0,0,13.73-4.64,27.21,9.27,13.48,13.91,19.75,25.74,35.41,33.68,15.66,7.94-.42,20.18-9.36,20.64-8.94,.45-23.52-25.85-44.65-36.99-21.14-11.14-46.14,22.52-54.95,40.95-8.81,18.43-33.78,29.67-33.78,29.67,0,0,27.47-.89,50.11,29.03,22.64,29.92,47.34,37.27,64.23,21.03,16.89-16.23,45.93-26.41,48.55-14.84,2.62,11.57-17.37,29.51-33.62,30.83-16.25,1.32-22.49,2.02-22.49,2.02,0,0,17.97,18.55,23.02,29.37,5.05,10.81,50.71,42.13,73.18,19.17,22.46-22.96,28.97-71.6,45.26-81.36,16.28-9.76,26.74,19.75,6.04,47.14-20.7,27.39-30.61,44.63-42.33,51.92,0,0,42.46,8.02,56.45-3.98,13.99-12,3.05-45,19.45-50.74,16.4-5.74,21.16,23.69,12.74,34.57-8.42,10.88-13.47,19.67-13.47,19.67,0,0,6.9-5.91,30.86-14.26,23.96-8.35,34.51-54.51,32.5-79.55Zm-271.68-64.15c-5.54-2.59-8.45-8.06-6.5-12.21,1.94-4.16,8.01-5.42,13.54-2.84,5.54,2.59,8.45,8.06,6.5,12.21-1.94,4.16-8.01,5.43-13.54,2.84Zm202.93-69.67c-4.22,4.01-14.61-.08-23.21-9.13-8.59-9.05-12.13-19.64-7.91-23.65,4.22-4.01,14.61,.08,23.21,9.13,8.59,9.05,12.13,19.64,7.91,23.65Z"/></clipPath></defs><g id="a"/><g id="b"><g id="c"><g><g><path class="j" d="M460.37,282.24c-7.13-15.67-7.46-21.82-7.46-21.82,0,0-1.95,6.6-3.34,15.82-1.39,9.23-18.05,20.69-22.93,9.95-4.87-10.74,16.44-20.83,15.77-33.32-.67-12.49-24.5-29.56-24.5-29.56,1.91,9.16-1.9,22.1-5.64,45.09-3.73,22.99-23.11,31.69-25.95,19.13-2.84-12.56,17.97-38.55,18.71-60.33,.74-21.78-36.02-29.5-43.7-26.91-7.67,2.59-25.19,2.47-25.19,2.47,0,0,2.58,3.39,9.55,11.98,6.97,8.59,7.53,26.81,.63,30.94-6.9,4.14-15.52-14.88-15.47-30.77,.05-15.89-15.13-24.56-40.42-21.65-25.29,2.91-37.72-10.98-37.72-10.98,0,0,6.19,17.52,1.27,30.47-4.92,12.96-9.71,41,5.66,46.15,15.37,5.15,35.1-.03,39.07,4.57,3.97,4.6,5.49,18.22-5.74,14.26-11.23-3.96-19.97-1.5-33.12-1.59-13.14-.09-17.3-9-17.3-9,0,0,2.67,8.19,1.37,19.59-1.3,11.4,5.85,29.59,26.1,37.6,20.25,8.01,25.74,2.74,40.88-6.68,15.14-9.42,33.47-.1,32.46,15.12-1.01,15.23-38.37-2.66-54.33,8.04-15.96,10.71-31.35,5.68-31.35,5.68,4.45,7.52,4.37,15.72,41.06,42.08,36.69,26.35,83.66-40.63,83.66-40.63,0,0,40.94-1.74,54.17-12.49,13.22-10.75,30.92-37.55,23.79-53.22Zm-177.62-42.02c-1.13,2.9-5.17,4.03-9.04,2.53-3.86-1.5-6.08-5.07-4.95-7.97,1.13-2.9,5.17-4.03,9.04-2.53,3.86,1.5,6.08,5.07,4.95,7.97Zm40.65,131.43c-8.47,.03-15.34-3.15-15.35-7.11-.01-3.95,6.84-7.18,15.31-7.2,8.47-.03,15.34,3.15,15.35,7.11,.01,3.95-6.84,7.18-15.31,7.2Zm36.42-96.45c-3.15,.85-6.78-2.43-8.11-7.34-1.33-4.91,.14-9.58,3.28-10.44,3.15-.85,6.78,2.43,8.11,7.34,1.33,4.91-.14,9.58-3.28,10.44Z"/><g class="p"><path class="o" d="M396.82,70.21l43.69-20.69-165.35,117.21-43.69,20.69,165.35-117.21Zm-140.62,111.54c.87,.77,1.79,1.57,2.74,2.4l27.77-13.92L447.03,56.23l-48.46,24.28-142.37,101.23Zm-31.49-1.13l38.93-17.09L434.01,43.11l-38.93,17.09-170.37,120.42Zm194.21,259.14l-14.51,20.9,55.38-38.15-42.35,29.25-9.48,17.69,7.58-5.23-4.25,13.83,2.58-1.79,.43,8.44,200.79-139.57-.47-9.26-6.73,4.67,3.89-12.67-11.86,8.21,8.8-16.42-17.5,12.09,14.22-20.49-186.53,128.51Zm-155.03-251.32c.84,.72,1.7,1.47,2.58,2.23l31.77-16.64L453.53,63.23l-53.22,27.88-136.43,97.33Zm-71.1-37.8l-1.6,1.11,12.78,.74-6.14,4.3,17.89-2.44-11.22,7.87,23.51-6.02-16.8,11.81,29.41-9.91,34.89-24.53-57.56,40.57,34.17-13.5L427.52,37.02l-33.46,13.22,26.99-18.98-27.23,9.17,20.79-14.58-21.47,5.5,15.06-10.53-16.21,2.21,9.84-6.87-11.47-.66,5.16-3.59-7.27-3.14,1.01-.71-5.61-8.06L178.09,142.89l5.61,8.06,3.76-2.61,5.34,2.3Zm221.6,335.8l-.09-1.74-2.65,1.84,5.61,8.06,205.57-142.89-5.61-8.06-2.12,1.48,.1,2.01-200.81,139.29Zm-103.31-254c.66,.69,1.32,1.39,1.98,2.09l53.96-32.62,125.12-91.53-81.78,49.44-99.28,72.62Zm89.57,219.26l181.76-124.92,19.53-24.11-181.76,124.91-19.53,24.12Zm-82.03-211.13c.63,.7,1.27,1.41,1.91,2.12l57.81-35.42,120.09-88.32-86.54,53.03-93.26,68.58Zm186.04-112.89l-91.3,56.63-87.37,64.62c.61,.72,1.23,1.44,1.84,2.17l61.77-38.31,115.07-85.1Zm-232.9,67.58c.8,.7,1.61,1.41,2.44,2.13l35.57-19.31,150.26-107.58-57.98,31.47-130.29,93.28Zm31.62,29.3c.68,.68,1.36,1.37,2.05,2.06l50.21-29.89,130.15-94.74-77.02,45.85-105.39,76.71Zm-23.68-22.29c.77,.68,1.54,1.38,2.32,2.08l39.26-21.94,145.23-104.37-62.74,35.06-124.07,89.16Zm7.95,7.21c.73,.68,1.48,1.36,2.22,2.06l42.89-24.57,140.21-101.16-67.5,38.66-117.82,85.01Zm7.91,7.43c.71,.68,1.42,1.36,2.13,2.05l46.54-27.21,135.18-97.95-72.26,42.25-111.58,80.85Zm98.91,173.91c.15,1.05,.3,2.1,.45,3.16l141.93-96.09,44.67-40.16-157.96,106.94-29.09,26.15Zm-19.69-66.53c.43,.95,.85,1.9,1.27,2.86l100.59-66.38,74.84-59.42-129.39,85.38-47.31,37.57Zm-21.81-39.54c.53,.81,1.06,1.62,1.58,2.44l79.34-51.05,94.95-72.26-110.35,71-65.52,49.87Zm43.71,157.84l177-121.32,24.56-27.32-177,121.32-24.56,27.32Zm-26.78-128.54c.46,.91,.91,1.83,1.36,2.74l94.87-62.25,79.87-62.64-124.63,81.79-51.46,40.36Zm-5.28-10c.48,.87,.96,1.75,1.44,2.64l89.43-58.33,84.9-65.85-119.87,78.19-55.89,43.35Zm-31.5-46.52c.59,.74,1.18,1.48,1.77,2.22l65.89-41.3,110.04-81.9-96.07,60.22-81.64,60.76Zm6.9,8.83c.57,.76,1.14,1.52,1.71,2.28l70.17-44.41,105.01-78.69-100.83,63.82-76.07,57Zm6.62,9.07c.55,.78,1.1,1.57,1.65,2.36l74.65-47.66,99.98-75.48-105.59,67.41-70.69,53.36Zm12.33,18.84c.51,.84,1.01,1.69,1.51,2.54l84.25-54.6,89.93-69.06-115.11,74.6-60.58,46.52Zm36.97,108.65c.09,.98,.18,1.96,.27,2.94l150.11-101.97,39.65-36.95-162.72,110.54-27.3,25.45Zm-7.8,21.01l167.48-114.13,34.62-33.75-167.48,114.13-34.62,33.75Zm4.29-44.87c.21,1.07,.42,2.15,.62,3.24l134.14-90.49,49.7-43.37-153.2,103.35-31.26,27.28Zm.07,54.26l172.24-117.73,29.59-30.53-172.24,117.73-29.59,30.53Zm-2.63-65.73c.27,1.07,.53,2.15,.78,3.23l126.72-85.16,54.73-46.59-148.44,99.76-33.79,28.76Zm-6.62-22.14c.36,1.02,.71,2.04,1.05,3.07l112.98-75.29,64.79-53-138.92,92.57-39.91,32.65Zm3.55,10.94c.31,1.05,.62,2.1,.93,3.16l119.67-80.1,59.76-49.79-143.68,96.16-36.68,30.57Zm-7.57-21.65c.39,.98,.78,1.97,1.17,2.97l106.63-70.72,69.81-56.22-134.15,88.97-43.45,34.99Z"/></g></g><g><path class="k" d="M293.76,459.97c-17.01-2.62-22.35-5.71-22.35-5.71,0,0,4.45,5.24,11.41,11.46,6.96,6.22,7.42,26.43-4.23,24.63-11.65-1.8-8.43-25.16-19.24-31.44s-38.15,4.31-38.15,4.31c8.71,3.41,17.45,13.69,34.64,29.41,17.19,15.72,13.86,36.69,1.79,32.19-12.07-4.5-22.41-36.15-40.23-48.69-17.82-12.54-44.41,13.98-46.45,21.82-2.04,7.84-11.73,22.43-11.73,22.43,0,0,4.24-.3,15.25-1.43,11.01-1.12,26.55,8.38,26.23,16.42-.32,8.04-20.95,4.84-34.22-3.91-13.27-8.74-28.84-.8-40.25,21.96-11.41,22.75-29.85,25.55-29.85,25.55,0,0,18.05,4.41,26.19,15.62,8.15,11.21,28.98,30.58,41.71,20.54,12.72-10.04,19.2-29.38,25.22-30.18,6.02-.8,18.26,5.39,8.79,12.61-9.47,7.23-12.19,15.89-19.47,26.84-7.27,10.95-17.01,9.54-17.01,9.54,0,0,8.32,2.26,17.14,9.59,8.83,7.33,27.96,11.31,45.75-1.24,17.8-12.55,16.4-20.04,16.8-37.87,.41-17.83,18.24-28.06,30.43-18.88,12.19,9.18-23.24,30.65-23.03,49.86,.22,19.22-12.42,29.34-12.42,29.34,8.73,.39,15.55,4.95,57.69-11.31,42.14-16.26,11.83-92.25,11.83-92.25,0,0,20.97-35.21,19.22-52.16-1.75-16.95-14.49-46.44-31.5-49.06Zm-132.43,125.6c1.81,2.53,.54,6.54-2.83,8.95-3.37,2.41-7.57,2.31-9.38-.22-1.81-2.53-.54-6.54,2.83-8.95,3.37-2.41,7.57-2.31,9.38,.22Zm132.23,37.97c-4.61,7.1-11.04,11.11-14.35,8.95-3.31-2.15-2.26-9.65,2.36-16.75,4.61-7.1,11.04-11.11,14.35-8.95,3.31,2.15,2.26,9.65-2.36,16.75Zm-60.76-83.3c-1.01,3.1-5.75,4.34-10.59,2.77-4.84-1.57-7.94-5.36-6.94-8.46,1.01-3.1,5.75-4.34,10.59-2.77,4.84,1.57,7.94,5.36,6.94,8.46Z"/><g class="r"><path class="o" d="M81.55,397.02l6.62-47.89,7.51,202.53-6.62,47.89-7.51-202.53Zm16.31,178.74c1.12-.31,2.29-.63,3.5-.98l3.57-30.86-7.58-196.57-6.22,53.84,6.73,174.56Zm-18.19,25.73l7.02-41.94-7.44-208.5-7.02,41.94,7.44,208.5Zm323.18-20.58l9.55,23.59-1.59-67.23,1.28,51.45,9.61,17.62-.23-9.21,9.25,11.13-.08-3.14,7.3,4.26-6.81-244.44-8.01-4.68,.22,8.19-8.47-10.2,.37,14.42-8.92-16.35,.53,21.26-9.36-23.12,5.37,226.45Zm-295.18-7.93c1.07-.31,2.16-.62,3.27-.94l3.48-35.7-7.65-190.6-5.82,59.79,6.72,167.45Zm-70.56,38.79l.06,1.95,7.62-10.28,.23,7.5,7.75-16.31,.44,13.7,7.84-22.96,.68,20.52,7.82-30.03-1.41-42.62,2.42,70.38,7.42-35.98-7.38-214.46-7.27,35.24-1.09-32.98-7.24,27.8-.81-25.37-7.16,20.97-.57-18.37-7.02,14.77-.36-12-6.84,9.23-.18-6.28-6.61,4.37-.03-1.24-9.82,.27,6.97,250.25,9.82-.27-.13-4.58,4.85-3.2Zm402.33-1.5l-1.5-.88,.09,3.23,9.82-.27-6.97-250.25-9.82,.27,.07,2.59,1.74,1.02,6.57,244.3Zm-269.1-52.66c.94-.17,1.88-.34,2.83-.51l2.26-63.01-8.05-154.81-3.42,95.5,6.39,122.84Zm232.51,45.14l-4.97-220.49-9.48-29.55,4.97,220.49,9.48,29.55Zm-221.58-47c.93-.15,1.88-.29,2.82-.43l2.02-67.77-8.12-148.85-3.02,101.46,6.31,115.59Zm7.43-217.48l-2.62,107.41,6.22,108.5c.94-.12,1.88-.24,2.82-.35l1.78-72.67-8.19-142.88Zm-71.01,231.88c1.02-.29,2.06-.58,3.12-.87l3.33-40.33-7.71-184.64-5.42,65.74,6.69,160.1Zm41.83-10.41c.94-.2,1.89-.39,2.85-.58l2.49-58.38-7.99-160.78-3.82,89.55,6.47,130.19Zm-31.62,7.6c.99-.27,2-.53,3.01-.8l3.14-44.86-7.78-178.67-5.02,71.7,6.65,152.64Zm10.38-2.7c.97-.24,1.95-.49,2.94-.73l2.94-49.34-7.85-172.71-4.62,77.65,6.6,145.14Zm10.55-2.55c.95-.22,1.92-.44,2.89-.66l2.72-53.84-7.92-166.74-4.22,83.6,6.54,137.64Zm199.68,12.49c.96,.45,1.93,.9,2.89,1.36l-2.67-171.38-9.14-59.38,2.97,190.73,5.95,38.66Zm-66.45-19.96c1.03,.16,2.05,.33,3.08,.5l-.45-120.52-8.73-95.17,.57,155.02,5.52,60.16Zm-45.03-3.41c.97,0,1.94,0,2.91,.01l.74-94.34-8.46-119.02-1.03,131.22,5.84,82.13Zm156.01,49.88l-4.57-214.54-9.41-35.52,4.57,214.54,9.41,35.52Zm-122.21-47.99c1.01,.12,2.03,.24,3.04,.37l-.13-113.47-8.66-101.13,.17,149.07,5.58,65.16Zm-11.26-1.06c1,.07,1.99,.15,2.99,.24l.17-106.77-8.6-107.1-.23,143.12,5.66,70.51Zm-56.17,.88c.94-.09,1.88-.18,2.83-.27l1.53-77.75-8.26-136.92-2.22,113.36,6.13,101.58Zm11.17-.93c.95-.06,1.9-.12,2.85-.18l1.27-83.04-8.33-130.95-1.82,119.31,6.03,94.86Zm11.22-.57c.96-.03,1.91-.06,2.88-.09l1.01-88.56-8.39-124.99-1.43,125.26,5.93,88.37Zm22.51,0c.98,.04,1.97,.08,2.95,.12l.46-100.4-8.53-113.06-.63,137.17,5.75,76.17Zm111.15,28.57c.87,.46,1.74,.92,2.61,1.39l-3.11-181.45-9.21-53.41,3.37,196.69,6.34,36.78Zm13.31,18.03l-3.77-202.64-9.28-47.45,3.77,202.64,9.28,47.45Zm-35.2-28.16c1.02,.41,2.03,.83,3.05,1.26l-2.25-161.79-9.07-65.34,2.57,184.78,5.7,41.09Zm45.44,29.66l-4.17-208.59-9.34-41.48,4.17,208.59,9.34,41.48Zm-56.44-33.79c1.04,.36,2.08,.74,3.13,1.12l-1.85-152.67-9-71.31,2.17,178.83,5.56,44.03Zm-22.15-6.58c1.05,.26,2.1,.53,3.15,.8l-1.12-135.77-8.87-83.24,1.37,166.93,5.46,51.27Zm11.1,3.02c1.05,.31,2.1,.63,3.15,.96l-1.48-144-8.94-77.27,1.77,172.88,5.49,47.43Zm-22.26-5.52c1.04,.21,2.08,.43,3.12,.65l-.77-127.94-8.8-89.2,.97,160.97,5.48,55.52Z"/></g></g><g><path class="l" d="M419.09,463.68c-2.01-25.04-41.84-70.45-41.84-70.45,0,0,23.57-118.26-41.88-130.54-65.44-12.27-74.11-3.83-86.65-.93,0,0,21.04,11.29,25.87,39.2,4.84,27.91,61.95,49.52,46.75,66.1-15.21,16.58-43.81,6.53-49.18-19.21-5.37-25.73-5.35-36.96-34.51-50.38-29.16-13.42-55.82-2.52-66.65,10.47-10.83,12.99-22.28,18.49-22.28,18.49,0,0,13.73-4.64,27.21,9.27,13.48,13.91,19.75,25.74,35.41,33.68,15.66,7.94-.42,20.18-9.36,20.64-8.94,.45-23.52-25.85-44.65-36.99s-46.14,22.52-54.95,40.95c-8.81,18.43-33.78,29.67-33.78,29.67,0,0,27.47-.89,50.11,29.03,22.64,29.92,47.34,37.27,64.23,21.03,16.89-16.23,45.93-26.41,48.55-14.84,2.62,11.57-17.37,29.51-33.62,30.83-16.25,1.32-22.49,2.02-22.49,2.02,0,0,17.97,18.55,23.02,29.37,5.05,10.81,50.71,42.13,73.18,19.17,22.46-22.96,28.97-71.6,45.26-81.36,16.28-9.76,26.74,19.75,6.04,47.14-20.7,27.39-30.61,44.63-42.33,51.92,0,0,42.46,8.02,56.45-3.98,13.99-12,3.05-45,19.45-50.74,16.4-5.74,21.16,23.69,12.74,34.57-8.42,10.88-13.47,19.67-13.47,19.67,0,0,6.9-5.91,30.86-14.26,23.96-8.35,34.51-54.51,32.5-79.55Zm-271.68-64.15c-5.54-2.59-8.45-8.06-6.5-12.21,1.94-4.16,8.01-5.42,13.54-2.84,5.54,2.59,8.45,8.06,6.5,12.21-1.94,4.16-8.01,5.43-13.54,2.84Zm202.93-69.67c-4.22,4.01-14.61-.08-23.21-9.13-8.59-9.05-12.13-19.64-7.91-23.65,4.22-4.01,14.61,.08,23.21,9.13,8.59,9.05,12.13,19.64,7.91,23.65Z"/><g class="q"><g><rect class="n" x="426.79" y="378.46" width="9.82" height="250.35" transform="translate(-56.28 54.32) rotate(-6.76)"/><polygon class="n" points="440.8 622.71 411.8 380.05 402.98 387.09 431.98 629.76 440.8 622.71"/><polygon class="n" points="430.28 618.06 401.76 381.34 393.87 394.28 422.4 631 430.28 618.06"/><polygon class="n" points="419.77 613.4 391.71 382.64 384.76 401.47 412.82 632.24 419.77 613.4"/><polygon class="n" points="409.26 608.75 381.67 383.93 375.65 408.65 403.24 633.48 409.26 608.75"/><polygon class="n" points="398.75 604.1 371.62 385.23 366.54 415.84 393.66 634.72 398.75 604.1"/><polygon class="n" points="388.23 599.45 361.58 386.52 357.43 423.03 384.08 635.96 388.23 599.45"/><polygon class="n" points="377.72 594.8 351.54 387.82 348.32 430.21 374.5 637.2 377.72 594.8"/><polygon class="n" points="367.21 590.15 341.49 389.11 339.21 437.4 364.92 638.44 367.21 590.15"/><polygon class="n" points="356.69 585.49 331.45 390.41 330.1 444.59 355.34 639.68 356.69 585.49"/><polygon class="n" points="346.18 580.84 321.4 391.7 320.99 451.77 345.76 640.92 346.18 580.84"/><polygon class="n" points="335.67 576.19 311.36 393 311.88 458.96 336.18 642.16 335.67 576.19"/><polygon class="n" points="325.15 571.54 301.32 394.29 302.77 466.15 326.6 643.4 325.15 571.54"/><polygon class="n" points="314.64 566.89 291.27 395.59 293.66 473.33 317.03 644.64 314.64 566.89"/><polygon class="n" points="304.13 562.23 281.23 396.88 284.55 480.52 307.45 645.88 304.13 562.23"/><polygon class="n" points="293.61 557.58 271.18 398.18 275.44 487.71 297.87 647.12 293.61 557.58"/><polygon class="n" points="283.1 552.93 261.14 399.47 266.33 494.89 288.29 648.36 283.1 552.93"/><polygon class="n" points="272.59 548.28 251.1 400.77 257.22 502.08 278.71 649.59 272.59 548.28"/><polygon class="n" points="262.07 543.63 241.05 402.06 248.11 509.27 269.13 650.83 262.07 543.63"/><polygon class="n" points="251.56 538.98 231.01 403.36 239 516.45 259.55 652.07 251.56 538.98"/><polygon class="n" points="241.05 534.32 220.97 404.65 229.89 523.64 249.97 653.31 241.05 534.32"/><polygon class="n" points="230.53 529.67 210.92 405.95 220.78 530.83 240.39 654.55 230.53 529.67"/><polygon class="n" points="220.02 525.02 200.88 407.24 211.67 538.01 230.81 655.79 220.02 525.02"/><polygon class="n" points="209.51 520.37 190.83 408.54 202.56 545.2 221.23 657.03 209.51 520.37"/><polygon class="n" points="198.99 515.72 180.79 409.83 193.45 552.39 211.65 658.27 198.99 515.72"/><polygon class="n" points="188.48 511.06 170.75 411.12 184.34 559.57 202.07 659.51 188.48 511.06"/><polygon class="n" points="177.97 506.41 160.7 412.42 175.23 566.76 192.49 660.75 177.97 506.41"/><polygon class="n" points="167.45 501.76 150.66 413.71 166.12 573.95 182.91 661.99 167.45 501.76"/><polygon class="n" points="156.94 497.11 140.61 415.01 157.01 581.13 173.33 663.23 156.94 497.11"/><polygon class="n" points="146.43 492.46 130.57 416.3 147.9 588.32 163.75 664.47 146.43 492.46"/><polygon class="n" points="135.91 487.81 120.53 417.6 138.79 595.51 154.18 665.71 135.91 487.81"/><polygon class="n" points="125.4 483.15 110.48 418.89 129.68 602.7 144.6 666.95 125.4 483.15"/><polygon class="n" points="114.89 478.5 100.44 420.19 120.57 609.88 135.02 668.19 114.89 478.5"/><polygon class="n" points="104.37 473.85 90.39 421.48 111.46 617.07 125.44 669.43 104.37 473.85"/><polygon class="n" points="93.86 469.2 80.35 422.78 102.35 624.26 115.86 670.67 93.86 469.2"/><polygon class="n" points="83.35 464.55 70.31 424.07 93.24 631.44 106.28 671.91 83.35 464.55"/><polygon class="n" points="72.83 459.89 60.26 425.37 84.13 638.63 96.7 673.15 72.83 459.89"/><polygon class="n" points="62.32 455.24 50.22 426.66 75.02 645.82 87.12 674.39 62.32 455.24"/><polygon class="n" points="51.81 450.59 40.18 427.96 65.91 653 77.54 675.63 51.81 450.59"/><polygon class="n" points="41.29 445.94 30.13 429.25 56.8 660.19 67.96 676.87 41.29 445.94"/><polygon class="n" points="30.78 441.29 20.09 430.55 47.69 667.38 58.38 678.11 30.78 441.29"/><polygon class="n" points="20.27 436.64 10.04 431.84 38.58 674.56 48.8 679.35 20.27 436.64"/><rect class="n" x="14.7" y="431.69" width="9.82" height="250.35" transform="translate(-65.41 6.18) rotate(-6.76)"/></g></g></g></g></g></g></svg>