<svg xmlns="http://www.w3.org/2000/svg" xmlns:xlink="http://www.w3.org/1999/xlink" width="439" height="250" viewBox="0 0 439 250">
  <defs>
    <clipPath id="clip-path">
      <rect id="Rect치ngulo_184" data-name="Rect치ngulo 184" width="204.831" height="100.394" fill="none"/>
    </clipPath>
  </defs>
  <g id="Grupo_427" data-name="Grupo 427" transform="translate(83 54)">
    <ellipse id="Elipse_2" data-name="Elipse 2" cx="219.5" cy="125" rx="219.5" ry="125" transform="translate(-83 -54)" fill="#f5333f"/>
    <g id="Grupo_374" data-name="Grupo 374" transform="translate(72.24 34.802)" clip-path="url(#clip-path)">
      <path id="Trazado_554" data-name="Trazado 554" d="M35.255,126.581v13.653H33.648l-.076-1.358a3.967,3.967,0,0,1-3.232,1.53,4.348,4.348,0,0,1-4.283-4.571,4.3,4.3,0,0,1,4.226-4.57,3.852,3.852,0,0,1,3.079,1.416v-6.1Zm-1.816,9.255a2.681,2.681,0,0,0-2.754-2.83,2.832,2.832,0,0,0,0,5.66,2.671,2.671,0,0,0,2.754-2.83" transform="translate(-8.237 -40.013)" fill="#fff"/>
      <path id="Trazado_555" data-name="Trazado 555" d="M43.5,128.729a1.283,1.283,0,0,1,1.338-1.281,1.266,1.266,0,0,1,1.358,1.281,1.349,1.349,0,0,1-2.7,0m.421,2.983h1.892v8.8H43.9Z" transform="translate(-13.751 -40.286)" fill="#fff"/>
      <path id="Trazado_556" data-name="Trazado 556" d="M59.418,133.683l-3.978,8.854H53.91l-3.978-8.854H52l2.753,6.387,2.658-6.387Z" transform="translate(-15.784 -42.258)" fill="#fff"/>
      <path id="Trazado_557" data-name="Trazado 557" d="M74.31,138.556H67.464a2.964,2.964,0,0,0,3.079,2.41,3.726,3.726,0,0,0,2.486-.938l.822,1.377a5.161,5.161,0,0,1-3.519,1.166A4.53,4.53,0,0,1,65.59,138a4.406,4.406,0,0,1,4.512-4.57,4.161,4.161,0,0,1,4.226,4.495c0,.325-.019.631-.019.631M67.483,137.2h5.029a2.3,2.3,0,0,0-2.352-2.218,2.624,2.624,0,0,0-2.677,2.218" transform="translate(-20.733 -42.178)" fill="#fff"/>
      <path id="Trazado_558" data-name="Trazado 558" d="M87.47,133.488l-.153,1.912a2.131,2.131,0,0,0-.841-.153,2.408,2.408,0,0,0-2.505,2.466V142.4H82.058v-8.8h1.626l.077,1.721a3.005,3.005,0,0,1,2.982-1.893,4.146,4.146,0,0,1,.727.057" transform="translate(-25.939 -42.178)" fill="#fff"/>
      <path id="Trazado_559" data-name="Trazado 559" d="M91.759,141.491l.841-1.453a4.933,4.933,0,0,0,2.964.975c.975,0,1.568-.363,1.568-1.033,0-.612-.459-.918-1.855-1.262-1.721-.421-3.136-1.09-3.136-2.658,0-1.587,1.377-2.6,3.443-2.6a5.775,5.775,0,0,1,3.365.956l-.784,1.415a4.888,4.888,0,0,0-2.677-.8c-.823,0-1.416.287-1.416.937,0,.574.536.8,2.028,1.167,1.855.478,2.963,1.109,2.963,2.753,0,1.607-1.377,2.7-3.614,2.7a6.487,6.487,0,0,1-3.69-1.09" transform="translate(-29.005 -42.187)" fill="#fff"/>
      <path id="Trazado_560" data-name="Trazado 560" d="M105.683,128.729a1.283,1.283,0,0,1,1.338-1.281,1.266,1.266,0,0,1,1.358,1.281,1.349,1.349,0,0,1-2.7,0m.421,2.983H108v8.8h-1.912Z" transform="translate(-33.407 -40.286)" fill="#fff"/>
      <path id="Trazado_561" data-name="Trazado 561" d="M112.868,135.962a4.677,4.677,0,1,1,4.685,4.551,4.572,4.572,0,0,1-4.685-4.551m7.42,0a2.745,2.745,0,1,0-2.734,2.811,2.773,2.773,0,0,0,2.734-2.811m-4.9-6.75,3.461-2.295.9,1.53-3.729,1.855Z" transform="translate(-35.678 -40.119)" fill="#fff"/>
      <path id="Trazado_562" data-name="Trazado 562" d="M138.91,137.523V142.4H137v-4.608a2.4,2.4,0,1,0-4.78-.421l-.02,5.029h-1.911v-8.8h1.453l.076,1.568a3.509,3.509,0,0,1,3.232-1.741,3.739,3.739,0,0,1,3.863,4.092" transform="translate(-41.184 -42.178)" fill="#fff"/>
      <path id="Trazado_563" data-name="Trazado 563" d="M154.162,128.729a1.283,1.283,0,0,1,1.338-1.281,1.266,1.266,0,0,1,1.358,1.281,1.349,1.349,0,0,1-2.7,0m.421,2.983h1.893v8.8h-1.912Z" transform="translate(-48.731 -40.286)" fill="#fff"/>
      <path id="Trazado_564" data-name="Trazado 564" d="M170.783,137.523V142.4h-1.912v-4.608a2.4,2.4,0,1,0-4.78-.421l-.02,5.029h-1.912v-8.8h1.453l.076,1.568a3.509,3.509,0,0,1,3.232-1.741,3.739,3.739,0,0,1,3.863,4.092" transform="translate(-51.259 -42.178)" fill="#fff"/>
      <path id="Trazado_565" data-name="Trazado 565" d="M178.318,138.021a4.612,4.612,0,0,1,4.78-4.59,4.9,4.9,0,0,1,3.117.956l-.822,1.416a3.592,3.592,0,0,0-2.084-.631,2.826,2.826,0,0,0-3.041,2.849,2.8,2.8,0,0,0,2.964,2.811,3.828,3.828,0,0,0,2.161-.611l.784,1.434a5.216,5.216,0,0,1-3.079.918,4.526,4.526,0,0,1-4.78-4.551" transform="translate(-56.367 -42.178)" fill="#fff"/>
      <rect id="Rect치ngulo_183" data-name="Rect치ngulo 183" width="1.912" height="13.653" transform="translate(132.238 86.568)" fill="#fff"/>
      <path id="Trazado_566" data-name="Trazado 566" d="M209.053,133.683v8.8h-1.587l-.058-1.338a3.312,3.312,0,0,1-2.887,1.511,3.8,3.8,0,0,1-3.92-4.092v-4.876h1.893v4.494c0,1.606.9,2.639,2.257,2.639a2.381,2.381,0,0,0,2.39-2.467v-4.666Z" transform="translate(-63.411 -42.258)" fill="#fff"/>
      <path id="Trazado_567" data-name="Trazado 567" d="M216.957,128.729a1.283,1.283,0,0,1,1.338-1.281,1.266,1.266,0,0,1,1.358,1.281,1.349,1.349,0,0,1-2.7,0m.421,2.983h1.893v8.8h-1.912Z" transform="translate(-68.581 -40.286)" fill="#fff"/>
      <path id="Trazado_568" data-name="Trazado 568" d="M233.368,126.581v13.653h-1.606l-.076-1.358a3.967,3.967,0,0,1-3.232,1.53,4.348,4.348,0,0,1-4.283-4.571,4.3,4.3,0,0,1,4.226-4.57,3.852,3.852,0,0,1,3.079,1.416v-6.1Zm-1.816,9.255a2.681,2.681,0,0,0-2.754-2.83,2.832,2.832,0,0,0,0,5.66,2.671,2.671,0,0,0,2.754-2.83" transform="translate(-70.861 -40.013)" fill="#fff"/>
      <path id="Trazado_569" data-name="Trazado 569" d="M250.591,133.6v8.8h-1.682l-.077-1.4a3.812,3.812,0,0,1-3.194,1.568,4.582,4.582,0,0,1,.019-9.141,4.054,4.054,0,0,1,3.136,1.338l.077-1.166Zm-1.816,4.4a2.692,2.692,0,0,0-2.754-2.83,2.832,2.832,0,0,0,0,5.66,2.681,2.681,0,0,0,2.754-2.83" transform="translate(-76.305 -42.178)" fill="#fff"/>
      <path id="Trazado_570" data-name="Trazado 570" d="M288.055,95.514v-.022a3.916,3.916,0,1,1,7.831-.023v.023a3.916,3.916,0,1,1-7.831.022m7.381-.022v-.023a3.466,3.466,0,1,0-6.931.023v.022a3.466,3.466,0,1,0,6.931-.022m-5-1.689a.38.38,0,0,1,.383-.383h1.418c.877,0,1.53.428,1.53,1.26a1.265,1.265,0,0,1-.878,1.239l.765.9a.441.441,0,0,1,.112.293.375.375,0,0,1-.36.382.458.458,0,0,1-.36-.2l-1.035-1.26h-.81v1.058a.4.4,0,0,1-.382.4.385.385,0,0,1-.383-.4Zm1.733,1.6c.518,0,.81-.27.81-.652,0-.427-.293-.652-.81-.652h-.968v1.3Z" transform="translate(-91.055 -28.94)" fill="#fff"/>
      <path id="Trazado_571" data-name="Trazado 571" d="M27.2,54.868a86.685,86.685,0,0,0,4.945-8.251c1.946-4.36,1.567-8.653-1.63-8.638-4.639.022-11.37,6.885-15.238,11.335.032-1.518.032-4.127.037-4.886.107-17.521.157-29.5-6.782-29.5S0,35.964,0,52.58v4.667c0,16.173,4.495,17.93,8.906,17.93s5.863-3.568,5.863-6.8V66.51a14.742,14.742,0,0,0,4.969-2.656s2.866,4.785,4.343,6.711c1.575,2.053,5.1,6.415,8.617,4.508,3.292-1.784,3.568-4.626,1.53-8.941-1.888-4-7.03-11.264-7.03-11.264" transform="translate(0 -4.719)" fill="#fff"/>
      <path id="Trazado_572" data-name="Trazado 572" d="M98.768,48.9c-3.6-1.6-7.511,4.285-10,9.361-.95,1.937-1.906,3.932-2.489,5.155-2.32-4.4-5.178-10.856-9.129-10.856s-6.808,6.46-9.129,10.856c-.583-1.222-1.539-3.218-2.488-5.155-2.489-5.076-6.4-10.961-10-9.361-2.214.983-3.186,3.287-2.44,9.669a56.146,56.146,0,0,0,9.321,25.02c2.022,2.854,5.295,3.009,7.961-.529,3.117-4.136,6.6-15.856,6.775-16.522.174.666,3.659,12.387,6.775,16.522,2.667,3.538,5.94,3.383,7.961.529a56.155,56.155,0,0,0,9.321-25.02c.746-6.381-.226-8.685-2.441-9.669" transform="translate(-16.705 -15.374)" fill="#fff"/>
      <path id="Trazado_573" data-name="Trazado 573" d="M160.471,47.419c-2.807,0-4.532,3.972-5.375,6.842a13.235,13.235,0,0,0-11.629-6.842c-9.294,0-16.516,8.233-16.516,19.438,0,11.379,7.47,19.37,16.329,19.37,7.107,0,9.934-3.125,10.946-4.829a7.285,7.285,0,0,0,6.244,4.047c2.746,0,6.474-1.379,6.929-6.721a78.782,78.782,0,0,0-.741-21.666c-.588-3.074-2.212-9.64-6.187-9.64M146.353,74.193a7.165,7.165,0,1,1,7.164-7.165,7.164,7.164,0,0,1-7.164,7.165" transform="translate(-40.13 -14.989)" fill="#fff"/>
      <path id="Trazado_574" data-name="Trazado 574" d="M201.3,14.929h-.579c-6.939,0-8.53,21.035-8.53,37.651v4.667c0,16.173,5.053,17.93,8.819,17.93s8.819-1.756,8.819-17.93V52.58c0-16.616-1.591-37.651-8.53-37.651" transform="translate(-60.751 -4.719)" fill="#fff"/>
      <path id="Trazado_575" data-name="Trazado 575" d="M266.294,7.564A9.608,9.608,0,0,0,258.2,9.029L258.1,9.1a28.442,28.442,0,0,0-6.056-2.278,28.3,28.3,0,0,0-6.411-1.055l-.051-.111a9.636,9.636,0,0,0-18.084,1.484,9.889,9.889,0,0,0,4.9,11.27c-.76,6.15,2.919,11.228,7.741,14.063-.359-.027-.724-.047-1.1-.047-9.293,0-16.515,8.233-16.515,19.438,0,11.379,7.47,19.37,16.329,19.37,7.107,0,9.934-3.125,10.946-4.829a7.285,7.285,0,0,0,6.244,4.047c2.745,0,6.474-1.379,6.929-6.721a78.809,78.809,0,0,0-.741-21.666c-.5-2.595-1.731-7.675-4.492-9.2a12.833,12.833,0,0,0,5.521-6.19,9.9,9.9,0,0,0,9.852-7.316,9.647,9.647,0,0,0-6.814-11.8M232.874,16.3a7.8,7.8,0,0,1-3.37-8.615,7.553,7.553,0,0,1,14.174-1.167c-4.862.3-8.794,2.865-10.8,9.782m6.7,5.354a2.116,2.116,0,1,1,2.59-1.5,2.116,2.116,0,0,1-2.59,1.5M241.922,59.2a7.164,7.164,0,1,1,7.164-7.164,7.164,7.164,0,0,1-7.164,7.164m8.619-32.575c-.677,2.545-2.609,3.605-4.685,3.053s-3.137-2.41-2.459-4.955c.929-3.491,2.9-8.463,5.823-7.684s2.251,6.1,1.321,9.586m7.346-2.292a2.116,2.116,0,1,1-1.5-2.59,2.116,2.116,0,0,1,1.5,2.59m13.209-5.51a7.806,7.806,0,0,1-7.2,5.783c1.72-7.007-.41-11.2-4.484-13.886a7.554,7.554,0,0,1,11.685,8.1" transform="translate(-70.339 0)" fill="#fff"/>
    </g>
  </g>
</svg>
