<svg id="Grupo_375" data-name="Grupo 375" xmlns="http://www.w3.org/2000/svg" xmlns:xlink="http://www.w3.org/1999/xlink" width="126" height="61.756" viewBox="0 0 126 61.756">
  <defs>
    <clipPath id="clip-path">
      <rect id="Rect치ngulo_184" data-name="Rect치ngulo 184" width="126" height="61.756" fill="none"/>
    </clipPath>
  </defs>
  <g id="Grupo_374" data-name="Grupo 374" clip-path="url(#clip-path)">
    <path id="Trazado_554" data-name="Trazado 554" d="M31.715,126.581v8.4h-.988l-.047-.835a2.44,2.44,0,0,1-1.988.941,2.674,2.674,0,0,1-2.635-2.811,2.647,2.647,0,0,1,2.6-2.811,2.369,2.369,0,0,1,1.894.871v-3.753ZM30.6,132.274a1.649,1.649,0,0,0-1.694-1.741,1.742,1.742,0,0,0,0,3.482,1.643,1.643,0,0,0,1.694-1.741" transform="translate(-15.095 -73.329)" fill="#fff"/>
    <path id="Trazado_555" data-name="Trazado 555" d="M43.5,128.236a.789.789,0,0,1,.823-.788.779.779,0,0,1,.835.788.83.83,0,0,1-1.659,0m.259,1.835h1.164v5.411H43.749Z" transform="translate(-25.201 -73.831)" fill="#fff"/>
    <path id="Trazado_556" data-name="Trazado 556" d="M55.767,133.683l-2.447,5.446H52.38l-2.447-5.446H51.2l1.694,3.929,1.635-3.929Z" transform="translate(-28.926 -77.444)" fill="#fff"/>
    <path id="Trazado_557" data-name="Trazado 557" d="M70.954,136.584H66.743a1.823,1.823,0,0,0,1.894,1.483,2.292,2.292,0,0,0,1.529-.577l.506.847a3.175,3.175,0,0,1-2.164.717,2.787,2.787,0,0,1-2.917-2.811,2.71,2.71,0,0,1,2.776-2.811,2.56,2.56,0,0,1,2.6,2.765c0,.2-.012.388-.012.388m-4.2-.835h3.094a1.412,1.412,0,0,0-1.447-1.364,1.614,1.614,0,0,0-1.647,1.364" transform="translate(-37.997 -77.298)" fill="#fff"/>
    <path id="Trazado_558" data-name="Trazado 558" d="M85.387,133.466l-.094,1.176a1.311,1.311,0,0,0-.517-.094,1.481,1.481,0,0,0-1.541,1.517v2.882H82.058v-5.411h1l.047,1.058a1.849,1.849,0,0,1,1.835-1.164,2.55,2.55,0,0,1,.447.035" transform="translate(-47.537 -77.298)" fill="#fff"/>
    <path id="Trazado_559" data-name="Trazado 559" d="M91.759,138.4l.517-.894a3.035,3.035,0,0,0,1.823.6c.6,0,.965-.223.965-.635,0-.377-.282-.565-1.141-.776-1.058-.259-1.929-.671-1.929-1.635s.847-1.6,2.118-1.6a3.553,3.553,0,0,1,2.07.588l-.483.87a3.007,3.007,0,0,0-1.647-.494c-.506,0-.871.176-.871.576,0,.353.33.494,1.247.718,1.141.294,1.823.682,1.823,1.694,0,.988-.847,1.659-2.223,1.659a3.99,3.99,0,0,1-2.27-.671" transform="translate(-53.157 -77.314)" fill="#fff"/>
    <path id="Trazado_560" data-name="Trazado 560" d="M105.683,128.236a.789.789,0,0,1,.823-.788.779.779,0,0,1,.836.788.83.83,0,0,1-1.659,0m.259,1.835h1.164v5.411H105.93Z" transform="translate(-61.223 -73.831)" fill="#fff"/>
    <path id="Trazado_561" data-name="Trazado 561" d="M112.868,132.481a2.877,2.877,0,1,1,2.882,2.8,2.812,2.812,0,0,1-2.882-2.8m4.564,0a1.689,1.689,0,1,0-1.682,1.729,1.706,1.706,0,0,0,1.682-1.729m-3.011-4.152,2.129-1.411.553.941L114.809,129Z" transform="translate(-65.385 -73.524)" fill="#fff"/>
    <path id="Trazado_562" data-name="Trazado 562" d="M135.591,135.948v3h-1.176v-2.835a1.476,1.476,0,1,0-2.941-.259l-.012,3.094h-1.176v-5.411h.894l.047.965a2.158,2.158,0,0,1,1.988-1.071,2.3,2.3,0,0,1,2.376,2.517" transform="translate(-75.476 -77.298)" fill="#fff"/>
    <path id="Trazado_563" data-name="Trazado 563" d="M154.162,128.236a.789.789,0,0,1,.823-.788.779.779,0,0,1,.835.788.83.83,0,0,1-1.659,0m.259,1.835h1.164v5.411h-1.176Z" transform="translate(-89.307 -73.831)" fill="#fff"/>
    <path id="Trazado_564" data-name="Trazado 564" d="M167.464,135.948v3h-1.176v-2.835a1.476,1.476,0,1,0-2.941-.259l-.012,3.094h-1.176v-5.411h.894l.047.965a2.158,2.158,0,0,1,1.988-1.071,2.3,2.3,0,0,1,2.376,2.517" transform="translate(-93.94 -77.298)" fill="#fff"/>
    <path id="Trazado_565" data-name="Trazado 565" d="M178.318,136.254a2.837,2.837,0,0,1,2.941-2.823,3.013,3.013,0,0,1,1.918.588l-.506.871a2.21,2.21,0,0,0-1.282-.388,1.738,1.738,0,0,0-1.87,1.753,1.72,1.72,0,0,0,1.823,1.729,2.355,2.355,0,0,0,1.329-.376l.482.882a3.209,3.209,0,0,1-1.894.565,2.784,2.784,0,0,1-2.941-2.8" transform="translate(-103.301 -77.298)" fill="#fff"/>
    <rect id="Rect치ngulo_183" data-name="Rect치ngulo 183" width="1.176" height="8.399" transform="translate(81.345 53.252)" fill="#fff"/>
    <path id="Trazado_566" data-name="Trazado 566" d="M205.8,133.683v5.411h-.976l-.035-.823a2.038,2.038,0,0,1-1.776.929,2.339,2.339,0,0,1-2.411-2.517v-3h1.164v2.764c0,.988.553,1.623,1.388,1.623a1.464,1.464,0,0,0,1.47-1.518v-2.87Z" transform="translate(-116.21 -77.444)" fill="#fff"/>
    <path id="Trazado_567" data-name="Trazado 567" d="M216.957,128.236a.789.789,0,0,1,.823-.788.779.779,0,0,1,.836.788.83.83,0,0,1-1.659,0m.259,1.835h1.164v5.411H217.2Z" transform="translate(-125.685 -73.831)" fill="#fff"/>
    <path id="Trazado_568" data-name="Trazado 568" d="M229.828,126.581v8.4h-.988l-.047-.835a2.44,2.44,0,0,1-1.988.941,2.674,2.674,0,0,1-2.635-2.811,2.647,2.647,0,0,1,2.6-2.811,2.369,2.369,0,0,1,1.894.871v-3.753Zm-1.117,5.693a1.649,1.649,0,0,0-1.694-1.741,1.742,1.742,0,0,0,0,3.482,1.643,1.643,0,0,0,1.694-1.741" transform="translate(-129.863 -73.329)" fill="#fff"/>
    <path id="Trazado_569" data-name="Trazado 569" d="M247.051,133.537v5.411h-1.035l-.047-.859a2.345,2.345,0,0,1-1.965.965,2.819,2.819,0,0,1,.012-5.623,2.494,2.494,0,0,1,1.929.823l.047-.717Zm-1.117,2.705a1.656,1.656,0,0,0-1.694-1.741,1.742,1.742,0,0,0,0,3.482,1.649,1.649,0,0,0,1.694-1.741" transform="translate(-139.841 -77.298)" fill="#fff"/>
    <path id="Trazado_570" data-name="Trazado 570" d="M288.055,93.99v-.013a2.409,2.409,0,1,1,4.817-.014v.014a2.409,2.409,0,1,1-4.817.013m4.541-.013v-.014a2.132,2.132,0,1,0-4.264.014v.013a2.132,2.132,0,1,0,4.264-.013m-3.073-1.039a.234.234,0,0,1,.236-.236h.872c.54,0,.941.263.941.775a.778.778,0,0,1-.54.762l.471.553a.271.271,0,0,1,.069.18.23.23,0,0,1-.221.235.282.282,0,0,1-.222-.125l-.637-.775h-.5v.651a.245.245,0,0,1-.235.249.237.237,0,0,1-.236-.249Zm1.066.983c.318,0,.5-.166.5-.4,0-.263-.18-.4-.5-.4h-.6v.8Z" transform="translate(-166.872 -53.037)" fill="#fff"/>
    <path id="Trazado_571" data-name="Trazado 571" d="M16.731,39.5a53.324,53.324,0,0,0,3.042-5.076c1.2-2.682.964-5.323-1-5.314-2.854.013-6.994,4.235-9.373,6.973.02-.934.02-2.539.023-3.006.066-10.778.1-18.145-4.172-18.145S0,27.868,0,38.089V40.96C0,50.909,2.765,51.99,5.478,51.99s3.607-2.195,3.607-4.184V46.658a9.068,9.068,0,0,0,3.057-1.634s1.763,2.943,2.671,4.128c.969,1.263,3.134,3.946,5.3,2.773,2.025-1.1,2.195-2.846.941-5.5A66.065,66.065,0,0,0,16.731,39.5" transform="translate(0 -8.648)" fill="#fff"/>
    <path id="Trazado_572" data-name="Trazado 572" d="M81.094,48.8c-2.215-.984-4.62,2.636-6.151,5.758-.584,1.191-1.172,2.419-1.531,3.171-1.427-2.7-3.185-6.678-5.616-6.678s-4.188,3.974-5.616,6.678c-.358-.752-.947-1.979-1.53-3.171-1.531-3.122-3.936-6.742-6.151-5.758-1.362.6-1.96,2.022-1.5,5.948a34.537,34.537,0,0,0,5.734,15.391c1.244,1.756,3.257,1.851,4.9-.325C65.546,67.27,67.69,60.06,67.8,59.65c.107.41,2.251,7.62,4.168,10.164,1.641,2.176,3.654,2.081,4.9.325A34.543,34.543,0,0,0,82.6,54.748c.459-3.925-.139-5.343-1.5-5.948" transform="translate(-30.614 -28.175)" fill="#fff"/>
    <path id="Trazado_573" data-name="Trazado 573" d="M147.571,47.419c-1.727,0-2.788,2.443-3.307,4.209a8.141,8.141,0,0,0-7.153-4.209c-5.717,0-10.16,5.065-10.16,11.957,0,7,4.6,11.915,10.045,11.915,4.372,0,6.111-1.923,6.733-2.971a4.481,4.481,0,0,0,3.841,2.49,4.082,4.082,0,0,0,4.262-4.134,48.461,48.461,0,0,0-.456-13.328c-.362-1.891-1.361-5.93-3.806-5.93m-8.685,16.47a4.407,4.407,0,1,1,4.407-4.407,4.407,4.407,0,0,1-4.407,4.407" transform="translate(-73.544 -27.47)" fill="#fff"/>
    <path id="Trazado_574" data-name="Trazado 574" d="M197.79,14.929h-.356c-4.268,0-5.247,12.939-5.247,23.16V40.96c0,9.949,3.108,11.029,5.425,11.029s5.425-1.08,5.425-11.029V38.089c0-10.221-.979-23.16-5.247-23.16" transform="translate(-111.335 -8.648)" fill="#fff"/>
    <path id="Trazado_575" data-name="Trazado 575" d="M249.447,4.653a5.911,5.911,0,0,0-4.978.9L244.4,5.6a17.5,17.5,0,0,0-3.725-1.4,17.409,17.409,0,0,0-3.944-.649l-.031-.069a5.927,5.927,0,0,0-11.124.913,6.083,6.083,0,0,0,3.017,6.933c-.468,3.783,1.8,6.907,4.762,8.651-.221-.017-.446-.029-.679-.029-5.717,0-10.159,5.065-10.159,11.957,0,7,4.595,11.915,10.045,11.915,4.372,0,6.111-1.923,6.733-2.971a4.481,4.481,0,0,0,3.841,2.49,4.082,4.082,0,0,0,4.262-4.134,48.478,48.478,0,0,0-.456-13.328c-.305-1.6-1.065-4.721-2.764-5.658a7.894,7.894,0,0,0,3.4-3.808,6.091,6.091,0,0,0,6.06-4.5,5.934,5.934,0,0,0-4.191-7.259m-20.558,5.372a4.8,4.8,0,0,1-2.073-5.3,4.646,4.646,0,0,1,8.719-.718c-2.991.183-5.409,1.762-6.646,6.018m4.121,3.294A1.3,1.3,0,1,1,234.6,12.4a1.3,1.3,0,0,1-1.593.923m1.445,23.1a4.407,4.407,0,1,1,4.407-4.407,4.407,4.407,0,0,1-4.407,4.407m5.3-20.038a2.29,2.29,0,0,1-2.882,1.878,2.251,2.251,0,0,1-1.513-3.048c.571-2.147,1.783-5.206,3.582-4.727s1.384,3.75.813,5.9m4.519-1.41a1.3,1.3,0,1,1-.923-1.593,1.3,1.3,0,0,1,.923,1.593m8.125-3.39a4.8,4.8,0,0,1-4.43,3.557c1.058-4.31-.252-6.888-2.758-8.542a4.647,4.647,0,0,1,7.188,4.984" transform="translate(-128.907 0)" fill="#fff"/>
  </g>
</svg>
